<?xml version="1.0" encoding="utf-8"?>
<!-- Generator: Adobe Illustrator 27.7.0, SVG Export Plug-In . SVG Version: 6.00 Build 0)  -->
<svg version="1.1" xmlns="http://www.w3.org/2000/svg" xmlns:xlink="http://www.w3.org/1999/xlink" x="0px" y="0px"
	 viewBox="0 0 878 840" style="enable-background:new 0 0 878 840;" xml:space="preserve">
<style type="text/css">
	.st0{fill:#FFFFFF;}
	.st1{fill:none;stroke:#000000;stroke-width:41;stroke-miterlimit:10;}
	.st2{fill:none;stroke:#000000;stroke-width:13;stroke-miterlimit:10;}
</style>
<g id="Layer_2">
	<rect y="2" class="st0" width="880" height="843"/>
</g>
<g id="Logo_simple_copy">
	<g>
		<circle class="st1" cx="437.3" cy="420.4" r="335.93"/>
		<circle class="st2" cx="437.9" cy="420.02" r="276.41"/>
		<path d="M445.66,168.56c0,0,183.2,91.77,231.46,332.29c-93.01-10.43-105.58,2.08-161.68,17.09
			c-19.88-85.31-74.35-140.24-96.34-157.26c-28.91-9.17-103.16,15.43-103.16,15.43l-1.66-11.02
			C314.28,365.08,406.62,303.77,445.66,168.56z"/>
		<path d="M316.55,381.27l10.77,42.49c0,0,63.63-37.11,70.74-58.22C396.58,360.18,316.55,381.27,316.55,381.27z"/>
		<path d="M410.87,374.74c0,0,87.5,51.81,91.38,161.47c-28.8,9.4-46.89,11-96.09,47.28c-19.85-43.82-47.62-89.68-47.62-89.68
			s-18.76-11.17-107.79,18.16c-3.99-11.13-5.89-14.9-5.89-14.9L410.87,374.74z"/>
		<path d="M252.3,517.61l12.09,38.59c0,0,74.08-38.49,85.67-56.84C348.75,490.78,294.97,515.03,252.3,517.61z"/>
		<path d="M354.21,507.27c0,0,44.14,64,43.28,112.09c-52.07-19.91-186.86,37.01-186.86,37.01l-33.6-45.24
			C177.03,611.13,293.18,563.75,354.21,507.27z"/>
	</g>
</g>
</svg>
